<!DOCTYPE svg PUBLIC "-//W3C//DTD SVG 1.1//EN" "http://www.w3.org/Graphics/SVG/1.1/DTD/svg11.dtd">
<!-- Uploaded to: SVG Repo, www.svgrepo.com, Transformed by: SVG Repo Mixer Tools -->
<svg fill="#FFFFFF" height="800px" width="800px" version="1.1" id="Layer_1" xmlns="http://www.w3.org/2000/svg" xmlns:xlink="http://www.w3.org/1999/xlink" viewBox="-51.2 -51.2 614.40 614.40" xml:space="preserve" stroke="#FFFFFF">
<g id="SVGRepo_bgCarrier" stroke-width="0">
<rect x="-51.2" y="-51.2" width="614.40" height="614.40" rx="307.2" fill="#000000" strokewidth="0"/>
</g>
<g id="SVGRepo_tracerCarrier" stroke-linecap="round" stroke-linejoin="round"/>
<g id="SVGRepo_iconCarrier"> <g> <g> <path d="M436.167,160.462C386.131,122.338,322.146,101.342,256,101.342s-130.131,20.997-180.167,59.122 C27.64,197.184,0,244.335,0,289.825c0,42.616,24.291,74.4,72.201,94.471c38.978,16.329,95.092,25.198,166.785,26.361 c0.047,0,0.093,0.001,0.14,0.001c4.597,0,8.361-3.689,8.436-8.302c0.075-4.661-3.641-8.499-8.301-8.576 c-69.535-1.128-123.547-9.556-160.536-25.052c-41.616-17.434-61.845-43.243-61.845-78.903c0-39.587,25.863-82.928,69.184-115.936 c6.242-4.757,12.724-9.221,19.404-13.402c3.519,29.515,10.135,56.093,18.973,75.869c14.552,32.567,31.309,39.403,42.802,39.403 c0.112,0,0.226-0.002,0.34-0.007c2.123-0.082,4.143-0.963,5.65-2.474c1.583-1.589,2.469-3.743,2.462-5.985l-0.001-0.433 c-0.006-1.719-0.011-3.439-0.011-5.165c0-35.748,1.104-70.771,3.281-104.097c0.304-4.651-3.221-8.668-7.871-8.972 c-4.647-0.314-8.668,3.221-8.972,7.871c-2.085,31.917-3.197,65.367-3.307,99.506c-15.48-10.295-31.723-47.743-37.374-104.683 c0.097-0.051,0.149-0.105,0.18-0.159c28.667-15.244,60.458-25.483,93.604-30.11c0.967,39.094,6.934,75.576,17.034,103.569 c12.072,33.456,28.501,51.139,47.514,51.139c0.126,0,0.258-0.002,0.386-0.009c2.108-0.093,4.109-0.974,5.605-2.476 c1.583-1.589,2.469-3.745,2.462-5.989c-0.007-1.862-0.013-3.724-0.013-5.593c0-41.832,1.499-82.381,4.454-120.521 c0.36-4.647-3.116-8.706-7.762-9.066c-4.648-0.357-8.705,3.116-9.066,7.762c-2.855,36.843-4.366,75.89-4.495,116.146 c-8.226-5.462-16.487-18.503-23.205-37.123c-9.626-26.676-15.277-61.826-16.084-99.68c0.162-0.013,0.29-0.033,0.425-0.051 c7.793-0.622,15.641-0.938,23.524-0.938c24.531,0,48.731,3.062,71.935,8.938c2.93,74.865,25.542,148.6,64.362,148.6 c0.113,0,0.226-0.002,0.341-0.007c2.125-0.082,4.144-0.965,5.65-2.478c1.583-1.589,2.469-3.745,2.462-5.989 c-0.007-1.862-0.013-3.724-0.013-5.593c0-29.587,0.763-58.843,2.266-86.957c0.25-4.654-3.322-8.629-7.977-8.878 c-4.635-0.246-8.629,3.322-8.878,7.977c-1.423,26.602-2.189,54.211-2.28,82.151c-7.794-5.206-15.666-17.22-22.158-34.268 c-9.062-23.794-14.886-55.252-16.66-89.563c1.743,0.56,2.92,0.915,3.641,1.103c28.043,9.414,54.227,23.092,77.246,40.631 c43.32,33.007,69.182,76.348,69.182,115.935c0,35.561-20.114,61.322-61.493,78.756c-36.803,15.506-90.555,23.979-159.762,25.179 c-4.661,0.081-8.372,3.925-8.292,8.585c0.081,4.66,3.953,8.38,8.585,8.292c71.369-1.24,127.227-10.156,166.023-26.502 C487.836,364.057,512,332.326,512,289.825C512,244.335,484.36,197.184,436.167,160.462z"/> </g> </g> </g>
</svg>